<svg width="78" height="48" viewBox="0 0 78 48" fill="none" xmlns="http://www.w3.org/2000/svg">
<path d="M44.5498 0.68644C54.9926 0.68644 64.9925 2.58204 74.2256 6.04581L77.6816 13.9931L67.8652 33.4706C60.386 29.7675 51.9609 27.6864 43.0498 27.6864C26.0155 27.6864 10.759 35.2931 0.488281 47.2939L0 43.6122L3.76074 34.7704C8.01773 31.3664 12.7373 28.5161 17.8096 26.329L16.5283 23.786H16.5273L12.1406 15.0819L16.1914 5.56339C25.0555 2.40613 34.6018 0.68644 44.5498 0.68644Z" fill="#30262C"/>
<path d="M36.4046 11.1234L35.4078 2.5411L37.2554 2.32651L37.6458 5.68791L42.7118 5.09951L42.3214 1.73811L44.1689 1.52352L45.1658 10.1058L43.3182 10.3204L42.9277 6.95901L37.8618 7.54741L38.2522 10.9088L36.4046 11.1234Z" fill="#C8C5C7"/>
<path d="M47.8988 10.7286C47.5789 10.7237 47.2841 10.6391 47.0146 10.4749C46.7451 10.3107 46.5325 10.0914 46.3767 9.81699C46.2209 9.54255 46.1455 9.24535 46.1505 8.92539L46.229 3.83799C46.2341 3.51003 46.3186 3.2153 46.4827 2.95381C46.6469 2.68431 46.8662 2.47167 47.1406 2.31589C47.4151 2.16011 47.7123 2.08469 48.0322 2.08963L53.1196 2.16818C53.4396 2.17312 53.7303 2.25762 53.9918 2.42168C54.2613 2.58586 54.474 2.80517 54.6297 3.07961C54.7936 3.34617 54.8731 3.64343 54.868 3.97139L54.7894 9.05879C54.7845 9.37875 54.6959 9.67342 54.5238 9.94279C54.3596 10.2123 54.1403 10.4249 53.8658 10.5807C53.5994 10.7366 53.3062 10.8121 52.9862 10.8072L47.8988 10.7286ZM48.0117 8.85812L52.9071 8.93371L52.9827 4.03829L48.0873 3.9627L48.0117 8.85812Z" fill="#C8C5C7"/>
<path d="M56.9936 11.6819C56.6765 11.6389 56.394 11.5198 56.1459 11.3247C55.8979 11.1296 55.7129 10.8865 55.5909 10.5955C55.469 10.3044 55.4295 10.0004 55.4725 9.68329L56.3952 2.88159L58.2383 3.13163L57.3285 9.8382L62.1801 10.4964L63.0899 3.7898L64.9568 4.04307L64.0341 10.8448C63.991 11.1619 63.868 11.4439 63.665 11.6908C63.4699 11.9389 63.2268 12.1239 62.9358 12.2458C62.6526 12.3689 62.3525 12.4089 62.0354 12.3659L56.9936 11.6819Z" fill="#C8C5C7"/>
<path d="M70.3085 14.877L68.6291 11.3559L70.9874 11.9662L72.3266 14.7423L72.1672 15.358L70.3085 14.877ZM63.8145 13.1963L65.9762 4.84347L72.6097 6.56026C72.9272 6.64244 73.1937 6.79405 73.4092 7.01509C73.6324 7.23814 73.7874 7.50137 73.8742 7.80478C73.9687 8.1102 73.9758 8.4178 73.8956 8.72759L73.3364 10.8884C73.2562 11.1982 73.1008 11.4637 72.87 11.6849C72.6469 11.9082 72.3837 12.0632 72.0803 12.1499C71.7846 12.2387 71.478 12.2419 71.1605 12.1598L66.3247 10.9206L65.6151 13.6623L63.8145 13.1963ZM66.7967 9.09672L71.5366 10.3234L72.0507 8.33687L67.3109 7.11017L66.7967 9.09672Z" fill="#C8C5C7"/>
<path d="M41 15.6864L46.1962 24.6864H35.8038L41 15.6864Z" fill="#66CEF6"/>
</svg>
