<svg version="1.1" xmlns="http://www.w3.org/2000/svg" viewBox="0 0 5450 3410" width="5450" height="3410" class="excalidraw-svg"><!-- svg-source:excalidraw --><metadata></metadata><defs><style class="style-fonts">
      </style></defs><rect x="0" y="0" width="5450" height="3410" fill="#121212"></rect><g stroke-linecap="round" transform="translate(1130 2300) rotate(0 430 550)"><path d="M0 0 C172.35 -0.31, 343.88 -0.23, 860 0 M860 0 C856.35 298.56, 856.01 598.73, 860 1100 M860 1100 C658.44 1101.58, 455.77 1101.05, 0 1100 M0 1100 C3.81 687.8, 2.93 274.82, 0 0" stroke="#ff8383" stroke-width="2.5" fill="none" stroke-dasharray="8 10"></path></g><g stroke-linecap="round" transform="translate(10 1490) rotate(0 220 650)"><path d="M0 0 C88.43 0.04, 175.84 0.14, 440 0 M0 0 C119.78 0.48, 239.24 1.09, 440 0 M440 0 C442.03 305.74, 441.57 610.88, 440 1300 M440 0 C435.8 488.17, 435.36 975.95, 440 1300 M440 1300 C281.63 1297.76, 121.55 1298.51, 0 1300 M440 1300 C334.12 1297.81, 227.63 1298.26, 0 1300 M0 1300 C-1.62 857.9, -1.41 414.13, 0 0 M0 1300 C0.35 843.39, 0.42 386.35, 0 0" stroke="#56a2e8" stroke-width="2" fill="none"></path></g><g stroke-linecap="round" transform="translate(2410 2250) rotate(0 225 450)"><path d="M0 0 C90.42 0.03, 179.85 0.12, 450 0 M0 0 C122.49 0.48, 244.68 1.07, 450 0 M450 0 C451.6 211.69, 451.15 422.78, 450 900 M450 0 C447.12 338.06, 446.68 675.73, 450 900 M450 900 C287.99 897.8, 124.33 898.52, 0 900 M450 900 C341.71 897.85, 232.83 898.27, 0 900 M0 900 C-1.06 594.17, -0.85 286.68, 0 0 M0 900 C0.2 584, 0.27 267.57, 0 0" stroke="#ff8383" stroke-width="2" fill="none"></path></g><g stroke-linecap="round" transform="translate(2290 1330) rotate(0 225 400)"><path d="M0 0 C90.42 0.03, 179.85 0.12, 450 0 M0 0 C122.49 0.48, 244.68 1.07, 450 0 M450 0 C451.5 188.18, 451.04 375.75, 450 800 M450 0 C447.45 300.53, 447.01 600.67, 450 800 M450 800 C287.99 797.8, 124.33 798.52, 0 800 M450 800 C341.71 797.85, 232.83 798.27, 0 800 M0 800 C-0.92 528.24, -0.71 254.81, 0 0 M0 800 C0.16 519.15, 0.23 237.87, 0 0" stroke="#39994b" stroke-width="2" fill="none"></path></g><g stroke-linecap="round" transform="translate(2930 1410) rotate(0 225 400)"><path d="M0 0 C90.42 0.03, 179.85 0.12, 450 0 M0 0 C122.49 0.48, 244.68 1.07, 450 0 M450 0 C451.5 188.18, 451.04 375.75, 450 800 M450 0 C447.45 300.53, 447.01 600.67, 450 800 M450 800 C287.99 797.8, 124.33 798.52, 0 800 M450 800 C341.71 797.85, 232.83 798.27, 0 800 M0 800 C-0.92 528.24, -0.71 254.81, 0 0 M0 800 C0.16 519.15, 0.23 237.87, 0 0" stroke="#e28af8" stroke-width="2" fill="none"></path></g><g stroke-linecap="round" transform="translate(3410 2570) rotate(0 225 400)"><path d="M0 0 C90.42 0.03, 179.85 0.12, 450 0 M0 0 C122.49 0.48, 244.68 1.07, 450 0 M450 0 C451.5 188.18, 451.04 375.75, 450 800 M450 0 C447.45 300.53, 447.01 600.67, 450 800 M450 800 C287.99 797.8, 124.33 798.52, 0 800 M450 800 C341.71 797.85, 232.83 798.27, 0 800 M0 800 C-0.92 528.24, -0.71 254.81, 0 0 M0 800 C0.16 519.15, 0.23 237.87, 0 0" stroke="#b86200" stroke-width="2" fill="none"></path></g><g stroke-linecap="round" transform="translate(3610 1410) rotate(0 225 400)"><path d="M0 0 C90.42 0.03, 179.85 0.12, 450 0 M0 0 C122.49 0.48, 244.68 1.07, 450 0 M450 0 C451.5 188.18, 451.04 375.75, 450 800 M450 0 C447.45 300.53, 447.01 600.67, 450 800 M450 800 C287.99 797.8, 124.33 798.52, 0 800 M450 800 C341.71 797.85, 232.83 798.27, 0 800 M0 800 C-0.92 528.24, -0.71 254.81, 0 0 M0 800 C0.16 519.15, 0.23 237.87, 0 0" stroke="#56a2e8" stroke-width="2" fill="none"></path></g><a href="obsidian://open?vault=Navi%20Helios&amp;file=400%E7%9F%A5%E8%AD%98%2F410%E5%8E%9F%E5%AD%90%E5%8C%96%E7%9F%A5%E8%AD%98%E5%BA%AB%2F%E6%95%B8%E4%BD%8D%E5%8F%A2%E6%9E%97%20(Digital%20Jungle)"><g stroke-linecap="round" transform="translate(1330 2050) rotate(0 220 65)"><path d="M-0.47 0.23 L438.11 -0.29 L439.82 130.53 L1.59 129.98" stroke="none" stroke-width="0" fill="#ff838333"></path><path d="M0 0 C88.43 0.04, 175.84 0.14, 440 0 M0 0 C119.78 0.48, 239.24 1.09, 440 0 M440 0 C441.97 30.74, 440.83 59.97, 440 130 M440 0 C439.16 49.55, 438.05 98.12, 440 130 M440 130 C281.63 127.76, 121.55 128.51, 0 130 M440 130 C334.12 127.81, 227.63 128.26, 0 130 M0 130 C0.06 87.69, 0.59 41.21, 0 0 M0 130 C-0.24 85.22, -0.08 39.36, 0 0" stroke="#ff8383" stroke-width="2" fill="none"></path></g></a><g transform="translate(1441.416015625 2102.5) rotate(0 108.583984375 12.5)"><text x="108.583984375" y="17.619999999999997" font-family="Segoe UI Emoji" font-size="20px" fill="#d3d3d3" text-anchor="middle" style="white-space: pre;" direction="ltr" dominant-baseline="alphabetic">數位叢林 (Digital Jungle)</text></g><a href="obsidian://open?vault=Navi%20Helios&amp;file=400%E7%9F%A5%E8%AD%98%2F410%E5%8E%9F%E5%AD%90%E5%8C%96%E7%9F%A5%E8%AD%98%E5%BA%AB%2F%E7%8F%BE%E4%BB%A3%E5%A5%B4%E5%BD%B9%20(Modern%20Slavery)"><g stroke-linecap="round" transform="translate(1390 3210) rotate(0 200 75)"><path d="M-0.47 0.23 L398.11 -0.29 L399.82 150.53 L1.59 149.98" stroke="none" stroke-width="0" fill="#ff838333"></path><path d="M0 0 C80.49 0.09, 159.82 0.2, 400 0 M0 0 C108.91 0.45, 217.47 1.14, 400 0 M400 0 C402.02 35.44, 400.88 69.38, 400 150 M400 0 C398.99 57.06, 397.89 113.13, 400 150 M400 150 C256.18 147.65, 110.43 148.5, 0 150 M400 150 C303.77 147.7, 206.86 148.2, 0 150 M0 150 C-0.01 100.88, 0.52 47.58, 0 0 M0 150 C-0.22 98.19, -0.06 45.3, 0 0" stroke="#ff8383" stroke-width="2" fill="none"></path></g></a><g transform="translate(1471.9140625 3272.5) rotate(0 118.0859375 12.5)"><text x="118.0859375" y="17.619999999999997" font-family="Segoe UI Emoji" font-size="20px" fill="#d3d3d3" text-anchor="middle" style="white-space: pre;" direction="ltr" dominant-baseline="alphabetic">現代奴役 (Modern Slavery)</text></g><g stroke-linecap="round" transform="translate(30 1510) rotate(0 200 100)"><path d="M-0.47 0.23 L398.11 -0.29 L399.82 200.53 L1.59 199.98" stroke="none" stroke-width="0" fill="#e28af833"></path><path d="M0 0 C80.49 0.09, 159.82 0.2, 400 0 M0 0 C108.91 0.45, 217.47 1.14, 400 0 M400 0 C401.94 47.18, 400.92 93.01, 400 200 M400 0 C398.72 75.75, 397.73 150.61, 400 200 M400 200 C256.18 197.65, 110.43 198.5, 0 200 M400 200 C303.77 197.7, 206.86 198.2, 0 200 M0 200 C-0.16 133.64, 0.31 63.53, 0 0 M0 200 C-0.16 130.52, -0.01 60.07, 0 0" stroke="#e28af8" stroke-width="2" fill="none"></path></g><g transform="translate(40.912109375 1553.75) rotate(0 189.087890625 56.25)"><text x="189.087890625" y="15.858" font-family="Segoe UI Emoji" font-size="18px" fill="#d3d3d3" text-anchor="middle" style="white-space: pre;" direction="ltr" dominant-baseline="alphabetic">### 原始狩獵時代</text><text x="189.087890625" y="38.358000000000004" font-family="Segoe UI Emoji" font-size="18px" fill="#d3d3d3" text-anchor="middle" style="white-space: pre;" direction="ltr" dominant-baseline="alphabetic">- **驅動**：馬斯洛需求層次-生理需求</text><text x="189.087890625" y="60.858000000000004" font-family="Segoe UI Emoji" font-size="18px" fill="#d3d3d3" text-anchor="middle" style="white-space: pre;" direction="ltr" dominant-baseline="alphabetic">- **環境**：物理獵場、高風險、即時回饋</text><text x="189.087890625" y="83.358" font-family="Segoe UI Emoji" font-size="18px" fill="#d3d3d3" text-anchor="middle" style="white-space: pre;" direction="ltr" dominant-baseline="alphabetic">- **主權**：**個體主權**。自由，但生命極度脆</text><text x="189.087890625" y="105.858" font-family="Segoe UI Emoji" font-size="18px" fill="#d3d3d3" text-anchor="middle" style="white-space: pre;" direction="ltr" dominant-baseline="alphabetic">弱，對環境依賴度高。</text></g><g stroke-linecap="round" transform="translate(30 1750) rotate(0 200 120)"><path d="M-0.47 0.23 L398.11 -0.29 L399.82 240.53 L1.59 239.98" stroke="none" stroke-width="0" fill="#e28af833"></path><path d="M0 0 C80.49 0.09, 159.82 0.2, 400 0 M0 0 C108.91 0.45, 217.47 1.14, 400 0 M400 0 C401.89 56.58, 400.94 111.9, 400 240 M400 0 C398.54 90.71, 397.62 180.59, 400 240 M400 240 C256.18 237.65, 110.43 238.5, 0 240 M400 240 C303.77 237.7, 206.86 238.2, 0 240 M0 240 C-0.27 159.88, 0.17 76.29, 0 0 M0 240 C-0.11 156.4, 0.02 71.9, 0 0" stroke="#e28af8" stroke-width="2" fill="none"></path></g><g transform="translate(167 1858.75) rotate(0 63 11.25)"><text x="63" y="15.858" font-family="Segoe UI Emoji" font-size="18px" fill="#d3d3d3" text-anchor="middle" style="white-space: pre;" direction="ltr" dominant-baseline="alphabetic">農業與畜牧時代</text></g><g stroke-linecap="round" transform="translate(30 2030) rotate(0 200 160)"><path d="M-0.47 0.23 L398.11 -0.29 L399.82 320.53 L1.59 319.98" stroke="none" stroke-width="0" fill="#e28af833"></path><path d="M0 0 C80.49 0.09, 159.82 0.2, 400 0 M0 0 C108.91 0.45, 217.47 1.14, 400 0 M400 0 C401.73 75.36, 400.93 149.67, 400 320 M400 0 C398.31 120.63, 397.54 240.56, 400 320 M400 320 C256.18 317.65, 110.43 318.5, 0 320 M400 320 C303.77 317.7, 206.86 318.2, 0 320 M0 320 C-0.42 212.36, -0.05 101.81, 0 0 M0 320 C-0.04 208.16, 0.07 95.56, 0 0" stroke="#e28af8" stroke-width="2" fill="none"></path></g><g transform="translate(131.0087890625 2178.75) rotate(0 98.9912109375 11.25)"><text x="98.9912109375" y="15.858" font-family="Segoe UI Emoji" font-size="18px" fill="#d3d3d3" text-anchor="middle" style="white-space: pre;" direction="ltr" dominant-baseline="alphabetic">工業時代 (Industrial Age)</text></g><g stroke-linecap="round" transform="translate(30 2390) rotate(0 200 140)"><path d="M-0.47 0.23 L398.11 -0.29 L399.82 280.53 L1.59 279.98" stroke="none" stroke-width="0" fill="#ff838333"></path><path d="M0 0 C80.49 0.09, 159.82 0.2, 400 0 M0 0 C108.91 0.45, 217.47 1.14, 400 0 M400 0 C401.82 65.97, 400.94 130.78, 400 280 M400 0 C398.4 105.67, 397.56 210.58, 400 280 M400 280 C256.18 277.65, 110.43 278.5, 0 280 M400 280 C303.77 277.7, 206.86 278.2, 0 280 M0 280 C-0.36 186.12, 0.05 89.05, 0 0 M0 280 C-0.08 182.28, 0.05 83.73, 0 0" stroke="#ff8383" stroke-width="2" fill="none"></path></g><g transform="translate(179.82763671875 2518.75) rotate(0 50.17236328125 11.25)"><text x="50.17236328125" y="15.858" font-family="Segoe UI Emoji" font-size="18px" fill="#d3d3d3" text-anchor="middle" style="white-space: pre;" direction="ltr" dominant-baseline="alphabetic">數位/AI 時代</text></g><g stroke-linecap="round" transform="translate(490 10) rotate(0 2475 90)"><path d="M-0.47 0.23 L4948.11 -0.29 L4949.82 180.53 L1.59 179.98" stroke="none" stroke-width="0" fill="#3da5b633"></path><path d="M0 0 C990.37 -3.63, 1979.92 -3.55, 4950 0 M0 0 C1346.45 7.54, 2692.65 8.03, 4950 0 M4950 0 C4952.1 42.5, 4950.96 83.49, 4950 180 M4950 0 C4948.74 68.32, 4947.64 135.65, 4950 180 M4950 180 C3161.07 163.41, 1370.77 164.01, 0 180 M4950 180 C3757.6 163.83, 2564.7 164.19, 0 180 M0 180 C-0.11 120.65, 0.42 57.14, 0 0 M0 180 C-0.19 117.64, -0.03 54.21, 0 0" stroke="#3da5b6" stroke-width="2" fill="none"></path></g><g transform="translate(2839.8203125 85) rotate(0 125.1796875 15)"><text x="125.1796875" y="21.144" font-family="Segoe UI Emoji" font-size="24px" fill="#d3d3d3" text-anchor="middle" style="white-space: pre;" direction="ltr" dominant-baseline="alphabetic">核心公理 (Core Axioms)</text></g><a href="obsidian://open?vault=Navi%20Helios&amp;file=400%E7%9F%A5%E8%AD%98%2F410%E5%8E%9F%E5%AD%90%E5%8C%96%E7%9F%A5%E8%AD%98%E5%BA%AB%2F%E6%8A%80%E8%83%BD%E5%A0%86%E7%96%8A%E5%85%AC%E5%BC%8F%20(Skill%20Stacking%20Formula)"><g stroke-linecap="round" transform="translate(2611.985397332318 1585.5214849059075) rotate(0 200 50)"><path d="M-0.47 0.23 L398.11 -0.29 L399.82 100.53 L1.59 99.98" stroke="none" stroke-width="0" fill="#ff838333"></path><path d="M0 0 C80.49 0.09, 159.82 0.2, 400 0 M0 0 C108.91 0.45, 217.47 1.14, 400 0 M400 0 C401.89 23.69, 400.75 45.87, 400 100 M400 0 C399.4 38.3, 398.3 75.61, 400 100 M400 100 C256.18 97.65, 110.43 98.5, 0 100 M400 100 C303.77 97.7, 206.86 98.2, 0 100 M0 100 C0.17 67.91, 0.7 31.65, 0 0 M0 100 C-0.27 65.77, -0.11 30.45, 0 0" stroke="#ff8383" stroke-width="2" fill="none"></path></g></a><g transform="translate(2252.3486328125 1497.5) rotate(0 104.6513671875 131.25)"><text x="104.6513671875" y="12.334" font-family="Segoe UI Emoji" font-size="14px" fill="#d3d3d3" text-anchor="middle" style="white-space: pre;" direction="ltr" dominant-baseline="alphabetic">數位叢林 (Digital Jungle) ^t1</text><text x="104.6513671875" y="29.834" font-family="Segoe UI Emoji" font-size="14px" fill="#d3d3d3" text-anchor="middle" style="white-space: pre;" direction="ltr" dominant-baseline="alphabetic"></text><text x="104.6513671875" y="47.334" font-family="Segoe UI Emoji" font-size="14px" fill="#d3d3d3" text-anchor="middle" style="white-space: pre;" direction="ltr" dominant-baseline="alphabetic">現代奴役 (Modern Slavery) ^t2</text><text x="104.6513671875" y="64.834" font-family="Segoe UI Emoji" font-size="14px" fill="#d3d3d3" text-anchor="middle" style="white-space: pre;" direction="ltr" dominant-baseline="alphabetic"></text><text x="104.6513671875" y="82.334" font-family="Segoe UI Emoji" font-size="14px" fill="#d3d3d3" text-anchor="middle" style="white-space: pre;" direction="ltr" dominant-baseline="alphabetic">原始狩獵時代 ^t_evo_1</text><text x="104.6513671875" y="99.834" font-family="Segoe UI Emoji" font-size="14px" fill="#d3d3d3" text-anchor="middle" style="white-space: pre;" direction="ltr" dominant-baseline="alphabetic"></text><text x="104.6513671875" y="117.334" font-family="Segoe UI Emoji" font-size="14px" fill="#d3d3d3" text-anchor="middle" style="white-space: pre;" direction="ltr" dominant-baseline="alphabetic">農業與畜牧時代 ^t_evo_2</text><text x="104.6513671875" y="134.834" font-family="Segoe UI Emoji" font-size="14px" fill="#d3d3d3" text-anchor="middle" style="white-space: pre;" direction="ltr" dominant-baseline="alphabetic"></text><text x="104.6513671875" y="152.334" font-family="Segoe UI Emoji" font-size="14px" fill="#d3d3d3" text-anchor="middle" style="white-space: pre;" direction="ltr" dominant-baseline="alphabetic">工業時代 (Industrial Age) ^t_evo_i</text><text x="104.6513671875" y="169.834" font-family="Segoe UI Emoji" font-size="14px" fill="#d3d3d3" text-anchor="middle" style="white-space: pre;" direction="ltr" dominant-baseline="alphabetic"></text><text x="104.6513671875" y="187.334" font-family="Segoe UI Emoji" font-size="14px" fill="#d3d3d3" text-anchor="middle" style="white-space: pre;" direction="ltr" dominant-baseline="alphabetic">數位/AI 時代 ^t_evo_3</text><text x="104.6513671875" y="204.834" font-family="Segoe UI Emoji" font-size="14px" fill="#d3d3d3" text-anchor="middle" style="white-space: pre;" direction="ltr" dominant-baseline="alphabetic"></text><text x="104.6513671875" y="222.334" font-family="Segoe UI Emoji" font-size="14px" fill="#d3d3d3" text-anchor="middle" style="white-space: pre;" direction="ltr" dominant-baseline="alphabetic">核心公理 (Core Axioms) ^t_axiom</text><text x="104.6513671875" y="239.834" font-family="Segoe UI Emoji" font-size="14px" fill="#d3d3d3" text-anchor="middle" style="white-space: pre;" direction="ltr" dominant-baseline="alphabetic"></text><text x="104.6513671875" y="257.334" font-family="Segoe UI Emoji" font-size="14px" fill="#d3d3d3" text-anchor="middle" style="white-space: pre;" direction="ltr" dominant-baseline="alphabetic">技能堆疊公式</text></g><a href="obsidian://open?vault=Navi%20Helios&amp;file=400%E7%9F%A5%E8%AD%98%2F410%E5%8E%9F%E5%AD%90%E5%8C%96%E7%9F%A5%E8%AD%98%E5%BA%AB%2F%E5%80%8B%E4%BA%BA%E5%A3%9F%E6%96%B7%20(Personal%20Monopoly)"><g stroke-linecap="round" transform="translate(2315 1740) rotate(0 200 50)"><path d="M-0.47 0.23 L398.11 -0.29 L399.82 100.53 L1.59 99.98" stroke="none" stroke-width="0" fill="#ff838333"></path><path d="M0 0 C80.49 0.09, 159.82 0.2, 400 0 M0 0 C108.91 0.45, 217.47 1.14, 400 0 M400 0 C401.89 23.69, 400.75 45.87, 400 100 M400 0 C399.4 38.3, 398.3 75.61, 400 100 M400 100 C256.18 97.65, 110.43 98.5, 0 100 M400 100 C303.77 97.7, 206.86 98.2, 0 100 M0 100 C0.17 67.91, 0.7 31.65, 0 0 M0 100 C-0.27 65.77, -0.11 30.45, 0 0" stroke="#ff8383" stroke-width="2" fill="none"></path></g></a><g transform="translate(2315 1740) rotate(0 93.90185546875 8.75)"><text x="93.90185546875" y="12.334" font-family="Segoe UI Emoji" font-size="14px" fill="#d3d3d3" text-anchor="middle" style="white-space: pre;" direction="ltr" dominant-baseline="alphabetic">個人壟斷 (Personal Monopoly)</text></g><a href="obsidian://open?vault=Navi%20Helios&amp;file=400%E7%9F%A5%E8%AD%98%2F410%E5%8E%9F%E5%AD%90%E5%8C%96%E7%9F%A5%E8%AD%98%E5%BA%AB%2F3-Interest%20Mix"><g stroke-linecap="round" transform="translate(3635 1700) rotate(0 200 50)"><path d="M-0.47 0.23 L398.11 -0.29 L399.82 100.53 L1.59 99.98" stroke="none" stroke-width="0" fill="#56a2e833"></path><path d="M0 0 C80.49 0.09, 159.82 0.2, 400 0 M0 0 C108.91 0.45, 217.47 1.14, 400 0 M400 0 C401.89 23.69, 400.75 45.87, 400 100 M400 0 C399.4 38.3, 398.3 75.61, 400 100 M400 100 C256.18 97.65, 110.43 98.5, 0 100 M400 100 C303.77 97.7, 206.86 98.2, 0 100 M0 100 C0.17 67.91, 0.7 31.65, 0 0 M0 100 C-0.27 65.77, -0.11 30.45, 0 0" stroke="#56a2e8" stroke-width="2" fill="none"></path></g></a><g transform="translate(3792.16943359375 1741.25) rotate(0 42.83056640625 8.75)"><text x="42.83056640625" y="12.334" font-family="Segoe UI Emoji" font-size="14px" fill="#d3d3d3" text-anchor="middle" style="white-space: pre;" direction="ltr" dominant-baseline="alphabetic">3-Interest Mix</text></g><g stroke-linecap="round"><g transform="translate(230 1710) rotate(0 -0.03815704381281648 20)"><path d="M0 0 C0.26 8.48, -0.33 16.58, 0 40 M0 0 C-0.07 10.49, -0.29 21.98, 0 40" stroke="#d3d3d3" stroke-width="2" fill="none"></path></g><g transform="translate(230 1710) rotate(0 -0.03815704381281648 20)"><path d="M-7.02 21.27 C-5.27 25.49, -4.45 29.34, 0 40 M-7.02 21.27 C-5.09 25.99, -3.4 31.69, 0 40" stroke="#d3d3d3" stroke-width="2" fill="none"></path></g><g transform="translate(230 1710) rotate(0 -0.03815704381281648 20)"><path d="M6.66 21.14 C5.68 25.4, 3.76 29.27, 0 40 M6.66 21.14 C4.86 25.86, 2.84 31.6, 0 40" stroke="#d3d3d3" stroke-width="2" fill="none"></path></g></g><mask></mask><g stroke-linecap="round"><g transform="translate(230 1990) rotate(0 -0.03815704381281648 20)"><path d="M0 0 C0.26 8.48, -0.33 16.58, 0 40 M0 0 C-0.07 10.49, -0.29 21.98, 0 40" stroke="#d3d3d3" stroke-width="2" fill="none"></path></g><g transform="translate(230 1990) rotate(0 -0.03815704381281648 20)"><path d="M-7.02 21.27 C-5.27 25.49, -4.45 29.34, 0 40 M-7.02 21.27 C-5.09 25.99, -3.4 31.69, 0 40" stroke="#d3d3d3" stroke-width="2" fill="none"></path></g><g transform="translate(230 1990) rotate(0 -0.03815704381281648 20)"><path d="M6.66 21.14 C5.68 25.4, 3.76 29.27, 0 40 M6.66 21.14 C4.86 25.86, 2.84 31.6, 0 40" stroke="#d3d3d3" stroke-width="2" fill="none"></path></g></g><mask></mask><g stroke-linecap="round"><g transform="translate(230 2350) rotate(0 -0.03815704381281648 20)"><path d="M0 0 C0.26 8.48, -0.33 16.58, 0 40 M0 0 C-0.07 10.49, -0.29 21.98, 0 40" stroke="#d3d3d3" stroke-width="2" fill="none"></path></g><g transform="translate(230 2350) rotate(0 -0.03815704381281648 20)"><path d="M-7.02 21.27 C-5.27 25.49, -4.45 29.34, 0 40 M-7.02 21.27 C-5.09 25.99, -3.4 31.69, 0 40" stroke="#d3d3d3" stroke-width="2" fill="none"></path></g><g transform="translate(230 2350) rotate(0 -0.03815704381281648 20)"><path d="M6.66 21.14 C5.68 25.4, 3.76 29.27, 0 40 M6.66 21.14 C4.86 25.86, 2.84 31.6, 0 40" stroke="#d3d3d3" stroke-width="2" fill="none"></path></g></g><mask></mask><g stroke-linecap="round"><g transform="translate(430 2530) rotate(0 450 -200)"><path d="M0 0 C181.67 -80.35, 361.21 -160.27, 900 -400 M0 0 C246.26 -107.68, 490.88 -215.99, 900 -400" stroke="#d3d3d3" stroke-width="2" fill="none"></path></g><g transform="translate(430 2530) rotate(0 450 -200)"><path d="M882.06 -382.59 C886.65 -385.14, 889.06 -388.43, 900 -400 M882.06 -382.59 C887.29 -388.04, 891.74 -391.56, 900 -400" stroke="#d3d3d3" stroke-width="2" fill="none"></path></g><g transform="translate(430 2530) rotate(0 450 -200)"><path d="M875.07 -398.19 C880.92 -397.64, 884.73 -397.8, 900 -400 M875.07 -398.19 C882.06 -399.37, 888.42 -398.64, 900 -400" stroke="#d3d3d3" stroke-width="2" fill="none"></path></g></g><mask></mask><a href="obsidian://open?vault=Navi%20Helios&amp;file=400%E7%9F%A5%E8%AD%98%2F410%E5%8E%9F%E5%AD%90%E5%8C%96%E7%9F%A5%E8%AD%98%E5%BA%AB%2F%E7%89%B9%E5%AE%9A%E7%9F%A5%E8%AD%98%20(Specific%20Knowledge)"><g stroke-linecap="round" transform="translate(2318.219928399811 1501.9543915173556) rotate(0 244.51479955055044 204.9428466161183)"><path d="M0 0 C157.91 1.51, 314.89 1.04, 489.03 0 M0 0 C174.72 -1.12, 349.23 -1.2, 489.03 0 M489.03 0 C488.5 126.48, 487.36 254.25, 489.03 409.89 M489.03 0 C488.01 133.2, 487.43 266.62, 489.03 409.89 M489.03 409.89 C293.01 409.52, 98.5 409.19, 0 409.89 M489.03 409.89 C319.68 407.69, 150.09 407.85, 0 409.89 M0 409.89 C2.7 297.51, 1.24 186.97, 0 0 M0 409.89 C0.55 283.03, 0.99 156.31, 0 0" stroke="#d3d3d3" stroke-width="1" fill="none"></path></g><g transform="translate(2329.8868580773146 1660.0319015529517) rotate(0 232.84786987304688 46.86533658052217)"><text x="232.84786987304688" y="13.774652086659591" font-family="Helvetica, sans-serif, Segoe UI Emoji" font-size="16.300986636703364px" fill="#d3d3d3" text-anchor="middle" style="white-space: pre;" direction="ltr" dominant-baseline="alphabetic">obsidian://open?vault=Navi%20Helios&amp;file=400%E7%9F%A5%</text><text x="232.84786987304688" y="32.52078671886846" font-family="Helvetica, sans-serif, Segoe UI Emoji" font-size="16.300986636703364px" fill="#d3d3d3" text-anchor="middle" style="white-space: pre;" direction="ltr" dominant-baseline="alphabetic">E8%AD%98%2F410%E5%8E%9F%E5%AD%90%E5%8C%96</text><text x="232.84786987304688" y="51.26692135107733" font-family="Helvetica, sans-serif, Segoe UI Emoji" font-size="16.300986636703364px" fill="#d3d3d3" text-anchor="middle" style="white-space: pre;" direction="ltr" dominant-baseline="alphabetic">%E7%9F%A5%E8%AD%98%E5%BA%AB%2F%E7%89%B9%</text><text x="232.84786987304688" y="70.0130559832862" font-family="Helvetica, sans-serif, Segoe UI Emoji" font-size="16.300986636703364px" fill="#d3d3d3" text-anchor="middle" style="white-space: pre;" direction="ltr" dominant-baseline="alphabetic">E5%AE%9A%E7%9F%A5%E8%AD%98%20(Specific%20Know</text><text x="232.84786987304688" y="88.75919061549506" font-family="Helvetica, sans-serif, Segoe UI Emoji" font-size="16.300986636703364px" fill="#d3d3d3" text-anchor="middle" style="white-space: pre;" direction="ltr" dominant-baseline="alphabetic">ledge)</text></g><g stroke-linecap="round" transform="translate(2318.219928399811 1501.9543915173556) rotate(0 244.51479955055044 204.9428466161183) scale(1, 1)"><foreignObject style="width: 489.03px; height: 409.886px; border: none;"><div xmlns="http://www.w3.org/1999/xhtml" style="width: 100%; height: 100%;"><iframe src="obsidian://open?vault=Navi%20Helios&amp;file=400%E7%9F%A5%E8%AD%98%2F410%E5%8E%9F%E5%AD%90%E5%8C%96%E7%9F%A5%E8%AD%98%E5%BA%AB%2F%E7%89%B9%E5%AE%9A%E7%9F%A5%E8%AD%98%20(Specific%20Knowledge)" allowfullscreen="" style="width: 100%; height: 100%; border: none; border-radius: 0px; top: 0px; left: 0px;"></iframe></div></foreignObject></g></a></svg>