<svg version="1.1" xmlns="http://www.w3.org/2000/svg" viewBox="0 0 1284.6116874050276 512.8607749042026" width="1284.6116874050276" height="512.8607749042026" class="excalidraw-svg"><!-- svg-source:excalidraw --><metadata></metadata><defs><style class="style-fonts">
      </style></defs><rect x="0" y="0" width="1284.6116874050276" height="512.8607749042026" fill="#f5faff"></rect><a href="obsidian://open?vault=Navi%20Helios&amp;file=060%E6%94%AF%E6%8F%B4%E7%B3%BB%E7%B5%B1%2F%E5%84%80%E8%A1%A8%E6%9D%BF%E7%B3%BB%E7%B5%B1%2F%E4%BB%A3%E8%BE%A6%E6%B8%85%E5%96%AE"><g stroke-linecap="round" transform="translate(10 10) rotate(0 321.19373112777964 116.85723396493715)"><path d="M0 0 C131.72 1.25, 264.02 0.67, 642.39 0 M0 0 C224.56 2.51, 448.27 2.44, 642.39 0 M642.39 0 C643.4 85.45, 643.5 169.99, 642.39 233.71 M642.39 0 C641.19 89.58, 640.66 179.42, 642.39 233.71 M642.39 233.71 C395.31 236.18, 148.44 236.82, 0 233.71 M642.39 233.71 C486.03 232, 330.19 232.5, 0 233.71 M0 233.71 C-1.79 161.49, 1.16 90.68, 0 0 M0 233.71 C-1.65 183.24, -2.44 133.32, 0 0" stroke="#1e1e1e" stroke-width="1" fill="none"></path></g><g transform="translate(21.193242846529643 77.60752852534426) rotate(0 310.00048828125 49.24970543959287)"><text x="310.00048828125" y="18.094331741202325" font-family="Helvetica, sans-serif, Segoe UI Emoji" font-size="21.412915408518643px" fill="#1e1e1e" text-anchor="middle" style="white-space: pre;" direction="ltr" dominant-baseline="alphabetic">obsidian://open?vault=Navi%20Helios&amp;file=060%E6%94%AF%E</text><text x="310.00048828125" y="42.71918446099876" font-family="Helvetica, sans-serif, Segoe UI Emoji" font-size="21.412915408518643px" fill="#1e1e1e" text-anchor="middle" style="white-space: pre;" direction="ltr" dominant-baseline="alphabetic">6%8F%B4%E7%B3%BB%E7%B5%B1%2F%E5%84%80%E8%</text><text x="310.00048828125" y="67.3440371807952" font-family="Helvetica, sans-serif, Segoe UI Emoji" font-size="21.412915408518643px" fill="#1e1e1e" text-anchor="middle" style="white-space: pre;" direction="ltr" dominant-baseline="alphabetic">A1%A8%E6%9D%BF%E7%B3%BB%E7%B5%B1%2F%E4%BB</text><text x="310.00048828125" y="91.96888990059163" font-family="Helvetica, sans-serif, Segoe UI Emoji" font-size="21.412915408518643px" fill="#1e1e1e" text-anchor="middle" style="white-space: pre;" direction="ltr" dominant-baseline="alphabetic">%A3%E8%BE%A6%E6%B8%85%E5%96%AE</text></g><g stroke-linecap="round" transform="translate(10 10) rotate(0 321.19373112777964 116.85723396493715) scale(1, 1)"><foreignObject style="width: 642.387px; height: 233.714px; border: none;"><div xmlns="http://www.w3.org/1999/xhtml" style="width: 100%; height: 100%;"><iframe src="obsidian://open?vault=Navi%20Helios&amp;file=060%E6%94%AF%E6%8F%B4%E7%B3%BB%E7%B5%B1%2F%E5%84%80%E8%A1%A8%E6%9D%BF%E7%B3%BB%E7%B5%B1%2F%E4%BB%A3%E8%BE%A6%E6%B8%85%E5%96%AE" allowfullscreen="" style="width: 100%; height: 100%; border: none; border-radius: 0px; top: 0px; left: 0px;"></iframe></div></foreignObject></g></a><a href="obsidian://open?vault=Navi%20Helios&amp;file=060%E6%94%AF%E6%8F%B4%E7%B3%BB%E7%B5%B1%2F%E5%84%80%E8%A1%A8%E6%9D%BF%E7%B3%BB%E7%B5%B1%2F%E4%BB%A3%E8%BE%A6%E6%B8%85%E5%96%AE"><g stroke-linecap="round" transform="translate(665.3874622555593 11.5) rotate(0 304.6121125747342 115.7075733779138)"><path d="M0 0 C243.88 -1.6, 487.7 -1.23, 609.22 0 M0 0 C208.17 2.37, 415.77 2.21, 609.22 0 M609.22 0 C612.31 53.43, 610.32 105.98, 609.22 231.42 M609.22 0 C610.7 52.11, 610.26 105.11, 609.22 231.42 M609.22 231.42 C452.49 230.59, 295.97 231.21, 0 231.42 M609.22 231.42 C431.2 231.09, 252.74 231.32, 0 231.42 M0 231.42 C0.26 149.32, -1.71 65.82, 0 0 M0 231.42 C-1.43 183.94, -1.63 135.85, 0 0" stroke="#1e1e1e" stroke-width="1" fill="none"></path></g><g transform="translate(676.0710164806842 80.50038278312127) rotate(0 293.9285583496094 46.70719059479258)"><text x="293.9285583496094" y="17.160212305398275" font-family="Helvetica, sans-serif, Segoe UI Emoji" font-size="20.30747417164895px" fill="#1e1e1e" text-anchor="middle" style="white-space: pre;" direction="ltr" dominant-baseline="alphabetic">obsidian://open?vault=Navi%20Helios&amp;file=060%E6%94%AF%E</text><text x="293.9285583496094" y="40.513807602794564" font-family="Helvetica, sans-serif, Segoe UI Emoji" font-size="20.30747417164895px" fill="#1e1e1e" text-anchor="middle" style="white-space: pre;" direction="ltr" dominant-baseline="alphabetic">6%8F%B4%E7%B3%BB%E7%B5%B1%2F%E5%84%80%E8%</text><text x="293.9285583496094" y="63.867402900190854" font-family="Helvetica, sans-serif, Segoe UI Emoji" font-size="20.30747417164895px" fill="#1e1e1e" text-anchor="middle" style="white-space: pre;" direction="ltr" dominant-baseline="alphabetic">A1%A8%E6%9D%BF%E7%B3%BB%E7%B5%B1%2F%E4%BB</text><text x="293.9285583496094" y="87.22099819758715" font-family="Helvetica, sans-serif, Segoe UI Emoji" font-size="20.30747417164895px" fill="#1e1e1e" text-anchor="middle" style="white-space: pre;" direction="ltr" dominant-baseline="alphabetic">%A3%E8%BE%A6%E6%B8%85%E5%96%AE</text></g><g stroke-linecap="round" transform="translate(665.3874622555593 11.5) rotate(0 304.6121125747342 115.7075733779138) scale(1, 1)"><foreignObject style="width: 609.224px; height: 231.415px; border: none;"><div xmlns="http://www.w3.org/1999/xhtml" style="width: 100%; height: 100%;"><iframe src="obsidian://open?vault=Navi%20Helios&amp;file=060%E6%94%AF%E6%8F%B4%E7%B3%BB%E7%B5%B1%2F%E5%84%80%E8%A1%A8%E6%9D%BF%E7%B3%BB%E7%B5%B1%2F%E4%BB%A3%E8%BE%A6%E6%B8%85%E5%96%AE" allowfullscreen="" style="width: 100%; height: 100%; border: none; border-radius: 0px; top: 0px; left: 0px;"></iframe></div></foreignObject></g></a><a href="obsidian://open?vault=Navi%20Helios&amp;file=060%E6%94%AF%E6%8F%B4%E7%B3%BB%E7%B5%B1%2F%E5%84%80%E8%A1%A8%E6%9D%BF%E7%B3%BB%E7%B5%B1%2F%E4%BB%A3%E8%BE%A6%E6%B8%85%E5%96%AE"><g stroke-linecap="round" transform="translate(10.088459958792441 265.0511650484286) rotate(0 319.5746708548717 118.90480492788699)"><path d="M0 0 C247.36 -1.76, 495.5 -1.84, 639.15 0 M0 0 C160 0.55, 319.71 0.41, 639.15 0 M639.15 0 C638.6 63.13, 639.4 127.92, 639.15 237.81 M639.15 0 C638.61 57.64, 639.28 113.41, 639.15 237.81 M639.15 237.81 C412.93 236.8, 185.95 235.67, 0 237.81 M639.15 237.81 C390.27 235.24, 140.64 235.61, 0 237.81 M0 237.81 C1.22 151.57, 0.16 65.22, 0 0 M0 237.81 C-0.21 185.75, -0.16 133.45, 0 0" stroke="#1e1e1e" stroke-width="1" fill="none"></path></g><g transform="translate(21.255324417179736 334.95452044523523) rotate(0 308.4078063964844 49.001449531080326)"><text x="308.4078063964844" y="18.003122571010447" font-family="Helvetica, sans-serif, Segoe UI Emoji" font-size="21.304978056991448px" fill="#1e1e1e" text-anchor="middle" style="white-space: pre;" direction="ltr" dominant-baseline="alphabetic">obsidian://open?vault=Navi%20Helios&amp;file=060%E6%94%AF%E</text><text x="308.4078063964844" y="42.503847336550606" font-family="Helvetica, sans-serif, Segoe UI Emoji" font-size="21.304978056991448px" fill="#1e1e1e" text-anchor="middle" style="white-space: pre;" direction="ltr" dominant-baseline="alphabetic">6%8F%B4%E7%B3%BB%E7%B5%B1%2F%E5%84%80%E8%</text><text x="308.4078063964844" y="67.00457210209078" font-family="Helvetica, sans-serif, Segoe UI Emoji" font-size="21.304978056991448px" fill="#1e1e1e" text-anchor="middle" style="white-space: pre;" direction="ltr" dominant-baseline="alphabetic">A1%A8%E6%9D%BF%E7%B3%BB%E7%B5%B1%2F%E4%BB</text><text x="308.4078063964844" y="91.50529686763095" font-family="Helvetica, sans-serif, Segoe UI Emoji" font-size="21.304978056991448px" fill="#1e1e1e" text-anchor="middle" style="white-space: pre;" direction="ltr" dominant-baseline="alphabetic">%A3%E8%BE%A6%E6%B8%85%E5%96%AE</text></g><g stroke-linecap="round" transform="translate(10.088459958792441 265.0511650484286) rotate(0 319.5746708548717 118.90480492788699) scale(1, 1)"><foreignObject style="width: 639.149px; height: 237.81px; border: none;"><div xmlns="http://www.w3.org/1999/xhtml" style="width: 100%; height: 100%;"><iframe src="obsidian://open?vault=Navi%20Helios&amp;file=060%E6%94%AF%E6%8F%B4%E7%B3%BB%E7%B5%B1%2F%E5%84%80%E8%A1%A8%E6%9D%BF%E7%B3%BB%E7%B5%B1%2F%E4%BB%A3%E8%BE%A6%E6%B8%85%E5%96%AE" allowfullscreen="" style="width: 100%; height: 100%; border: none; border-radius: 0px; top: 0px; left: 0px;"></iframe></div></foreignObject></g></a><a href="obsidian://open?vault=Navi%20Helios&amp;file=060%E6%94%AF%E6%8F%B4%E7%B3%BB%E7%B5%B1%2F%E5%84%80%E8%A1%A8%E6%9D%BF%E7%B3%BB%E7%B5%B1%2F%E4%BB%A3%E8%BE%A6%E6%B8%85%E5%96%AE"><g stroke-linecap="round" transform="translate(666.6423408653562 269.41113746847026) rotate(0 303.5713830175315 115.64637274968305)"><path d="M0 0 C241.28 -0.99, 483.07 -1.68, 607.14 0 M0 0 C168.28 -1.14, 336.37 -1.05, 607.14 0 M607.14 0 C606.86 82.51, 608.17 162.12, 607.14 231.29 M607.14 0 C608.31 54.46, 609.01 109.6, 607.14 231.29 M607.14 231.29 C387.8 231.01, 167.72 232.18, 0 231.29 M607.14 231.29 C414.35 232.8, 221.92 232.91, 0 231.29 M0 231.29 C-0.98 182.34, -1.42 132.08, 0 0 M0 231.29 C0.37 175.33, 1.28 117.49, 0 0" stroke="#1e1e1e" stroke-width="1" fill="none"></path></g><g transform="translate(677.2986848203877 338.5098981554652) rotate(0 292.9150390625 46.54761206268816)"><text x="292.9150390625" y="17.101583185225913" font-family="Helvetica, sans-serif, Segoe UI Emoji" font-size="20.238092201168765px" fill="#1e1e1e" text-anchor="middle" style="white-space: pre;" direction="ltr" dominant-baseline="alphabetic">obsidian://open?vault=Navi%20Helios&amp;file=060%E6%94%AF%E</text><text x="292.9150390625" y="40.37538921656999" font-family="Helvetica, sans-serif, Segoe UI Emoji" font-size="20.238092201168765px" fill="#1e1e1e" text-anchor="middle" style="white-space: pre;" direction="ltr" dominant-baseline="alphabetic">6%8F%B4%E7%B3%BB%E7%B5%B1%2F%E5%84%80%E8%</text><text x="292.9150390625" y="63.64919524791407" font-family="Helvetica, sans-serif, Segoe UI Emoji" font-size="20.238092201168765px" fill="#1e1e1e" text-anchor="middle" style="white-space: pre;" direction="ltr" dominant-baseline="alphabetic">A1%A8%E6%9D%BF%E7%B3%BB%E7%B5%B1%2F%E4%BB</text><text x="292.9150390625" y="86.92300127925816" font-family="Helvetica, sans-serif, Segoe UI Emoji" font-size="20.238092201168765px" fill="#1e1e1e" text-anchor="middle" style="white-space: pre;" direction="ltr" dominant-baseline="alphabetic">%A3%E8%BE%A6%E6%B8%85%E5%96%AE</text></g><g stroke-linecap="round" transform="translate(666.6423408653562 269.41113746847026) rotate(0 303.5713830175315 115.64637274968305) scale(1, 1)"><foreignObject style="width: 607.143px; height: 231.293px; border: none;"><div xmlns="http://www.w3.org/1999/xhtml" style="width: 100%; height: 100%;"><iframe src="obsidian://open?vault=Navi%20Helios&amp;file=060%E6%94%AF%E6%8F%B4%E7%B3%BB%E7%B5%B1%2F%E5%84%80%E8%A1%A8%E6%9D%BF%E7%B3%BB%E7%B5%B1%2F%E4%BB%A3%E8%BE%A6%E6%B8%85%E5%96%AE" allowfullscreen="" style="width: 100%; height: 100%; border: none; border-radius: 0px; top: 0px; left: 0px;"></iframe></div></foreignObject></g></a></svg>